# xmcd
#
# Track frame offsets:
#	150
#	15283
#	30573
#	45001
#	60689
#	76039
#	91124
#	107121
#	122851
#	137160
#	151708
#	167270
#	181895
#	197059
#	212089
#	226785
#	242191
#
# Disc length: 3430 seconds
#
# Revision: 0
# Processed by: cddbd v1.5.2PL0 Copyright (c) Steve Scherf et al.
# Submitted via: EasyCDDAExtractor 16.0.8.2
#
DISCID=c00d6411
DTITLE=Παπασιδέρης Γιώργος - Ο αμάραντος-Γ. Παπασιδέρης 2
DYEAR=2015
DGENRE=Παραδοσιακή
TTITLE0=Ένας αετός καθότανε [Γ. Παπασιδέρης]
TTITLE1=Ο αμάραντος [Γ. Παπασιδέρης]
TTITLE2=Το φεγγάρι κάνει κύκλο [Γ. Παπασιδέρης]
TTITLE3=Όλες οι μελαχροινές [παραδοσιακό]
TTITLE4=Τώρα το βράδυ βράδυ [Γ. Παπασιδέρης]
TTITLE5=Τρία παιδιά Βολιώτικα [παραδοσιακό]
TTITLE6=Στα Σάλωνα (Μαρία πενταγιώτισσα)[ιδίου]
TTITLE7=Δημητρούλα [παραδοσιακό]
TTITLE8=Πετροπέρδικα [παραδοσιακό]
TTITLE9=Συννέφιασε ο Παρνασσός [παραδοσιακό]
TTITLE10=Κάτω στου βάλτου τα χωριά [δσκ. Δ.Σέμση και ιδίου]
TTITLE11=Καινούρια λόγια μού 'ρθανε [παραδοσιακό]
TTITLE12=Νιάτα μου και λεβεντιά μου [παραδοσιακό]
TTITLE13=Κόρη του παπά [Κ. Σκαρβέλης]
TTITLE14=Τσε κα ρούγα τσε γκεμόν [παραδοσιακό, αρβανίτικο]
TTITLE15=Εσείς βουνά  της Κορυτσάς [διασκ. Γ. Παπασιδέρης]
TTITLE16=Η φλογέρα (Σαν πας πουλί μου στον Μωριά)[παραδ.]
EXTD=
EXTT0=
EXTT1=
EXTT2=
EXTT3=
EXTT4=
EXTT5=
EXTT6=
EXTT7=
EXTT8=
EXTT9=
EXTT10=
EXTT11=
EXTT12=
EXTT13=
EXTT14=
EXTT15=
EXTT16=
PLAYORDER=
